<?xml version="1.0" encoding="UTF-8" standalone="no"?>
<svg
   xmlns:dc="http://purl.org/dc/elements/1.1/"
   xmlns:cc="http://creativecommons.org/ns#"
   xmlns:rdf="http://www.w3.org/1999/02/22-rdf-syntax-ns#"
   xmlns:svg="http://www.w3.org/2000/svg"
   xmlns="http://www.w3.org/2000/svg"
   xmlns:sodipodi="http://sodipodi.sourceforge.net/DTD/sodipodi-0.dtd"
   xmlns:inkscape="http://www.inkscape.org/namespaces/inkscape"
   width="100"
   height="130"
   version="1.1"
   id="svg19"
   sodipodi:docname="logoef.svg"
   inkscape:version="0.92.1 r15371">
  <metadata
     id="metadata25">
    <rdf:RDF>
      <cc:Work
         rdf:about="">
        <dc:format>image/svg+xml</dc:format>
        <dc:type
           rdf:resource="http://purl.org/dc/dcmitype/StillImage" />
        <dc:title>logoef</dc:title>
      </cc:Work>
    </rdf:RDF>
  </metadata>
  <defs
     id="defs23">
    <inkscape:perspective
       sodipodi:type="inkscape:persp3d"
       inkscape:vp_x="0 : 65 : 1"
       inkscape:vp_y="0 : 1000 : 0"
       inkscape:vp_z="100 : 65 : 1"
       inkscape:persp3d-origin="50 : 43.333333 : 1"
       id="perspective29" />
  </defs>
  <sodipodi:namedview
     pagecolor="#ffffff"
     bordercolor="#666666"
     borderopacity="1"
     objecttolerance="10"
     gridtolerance="10"
     guidetolerance="10"
     inkscape:pageopacity="0"
     inkscape:pageshadow="2"
     inkscape:window-width="1280"
     inkscape:window-height="737"
     id="namedview21"
     showgrid="false"
     inkscape:zoom="4"
     inkscape:cx="50"
     inkscape:cy="45"
     inkscape:window-x="-4"
     inkscape:window-y="-4"
     inkscape:window-maximized="1"
     inkscape:current-layer="svg19" />
  <!-- Created with SVG-edit - http://svg-edit.googlecode.com/ -->
  <title
     id="title10">logoef</title>
  <g
     id="g17">
    <title
       id="title12">Layer 1</title>
    <path
       fill="#ff7f00"
       stroke-width="5"
       d="m73.1268,7.89c-7.13281,5.59905 -16.99168,5.6534 -24.17866,0.16693c-6.91232,5.27867 -16.30011,5.42978 -23.35411,0.45312l-12.68406,13.22885c7.80248,8.2848 7.75712,21.5957 -0.13333,29.82369c-1.04721,2.8092 -1.59606,2.67374 -1.7103,5.50271c-0.26867,6.811 1.30471,13.1648 6.23305,17.95013c4.40246,4.27465 10.37679,6.08762 16.1156,5.44075c9.58311,0.51638 14.17733,4.84489 16.10507,7.43381c2.60307,-2.76624 6.65107,-7.21328 18.95417,-7.76766c7.34443,-1.10557 9.99855,-2.89161 13.44545,-6.19368c4.63944,-4.50474 6.26168,-10.20908 6.12495,-16.54716c-0.05678,-2.63126 -0.36551,-3.54606 -1.88992,-6.90572c-7.92705,-8.26614 -7.93282,-21.66337 -0.02104,-29.93951l-13.00687,-12.64629l0.00001,0.00001l-0.00001,0.00002z"
       id="svg_2"
       stroke="#ffaa56" />
    <text
       font-style="normal"
       stroke-linejoin="null"
       stroke-linecap="null"
       x="49.420864"
       y="55.445415"
       id="svg_4"
       font-size="24"
       xml:space="preserve"
       font-weight="bold"
       transform="scale(0.96942905,1.031535)"
       style="font-style:normal;font-variant:normal;font-weight:normal;font-stretch:normal;font-size:55.23126602px;font-family:'Bauhaus 93';-inkscape-font-specification:'Bauhaus 93, Normal';font-variant-ligatures:normal;font-variant-caps:normal;font-variant-numeric:normal;font-feature-settings:normal;text-align:center;writing-mode:lr-tb;text-anchor:middle;opacity:1;fill:#00007f;stroke:#000000;stroke-width:0;stroke-dasharray:none">EF</text>
    <path
       id="svg_3"
       d="m51.6178,120.96115c-1.32865,-1.59637 -3.39477,-1.77842 -3.89159,-4.05065c-0.3894,-1.23591 -4.06041,-2.89351 -1.88773,-0.67522c1.6777,1.33672 3.67089,6.26719 -0.45658,4.7094c-3.13925,-1.01207 -3.27387,-4.13723 -4.11534,-6.47694c-2.7364,-1.66774 0.70747,-5.19405 -2.23885,-7.33087c-2.50059,-2.23058 -0.75909,-6.40813 -4.33223,-7.98973c-1.79348,-0.63944 -2.56978,3.7756 -2.87175,0.54571c-0.98257,-3.26672 -4.45275,1.58797 -6.76676,1.0733c-1.86728,-0.1426 3.12346,-1.28295 0.74185,-1.58982c-1.4002,0.67334 -2.69573,1.83758 -2.91725,-0.08958c-1.68436,-0.87876 -5.2165,-2.28211 -5.12475,-3.67811c1.4627,-0.40364 6.40059,0.76432 5.54487,-0.85852c-1.46836,-0.48952 -1.73509,-1.82764 0.06335,-0.92958c3.54424,0.09767 7.6991,-1.14513 10.64814,1.23186c1.53822,0.83142 3.05067,3.81333 3.87415,0.91548c2.65454,-2.81252 8.01097,-3.05075 9.64737,-6.69227c0.39599,-1.76181 -1.21618,-2.76698 -2.58577,-3.12384c-0.26645,-0.579 -0.72004,-3.03719 -1.8526,-1.79671c0.05162,-1.08572 1.11402,-3.68205 -1.23923,-2.53265c-0.23868,-2.31251 2.01173,-4.61963 -0.96526,-6.30362c2.78928,0.45454 2.23924,-2.33885 1.63171,-2.78187c1.65347,-0.20625 3.59388,-1.5133 2.68222,-3.13252c1.79561,2.8636 1.85788,-3.47407 3.3362,-0.74235c2.72086,0.39184 -0.84527,-2.13539 1.65725,-1.5713c1.42897,0.04295 1.1116,-1.3754 2.3953,-0.30493c1.69896,-0.81433 -1.30242,-3.27537 1.44073,-1.56541c0.92215,0.70374 3.85802,2.54695 3.33126,0.11468c2.60661,2.44256 4.65787,-2.26872 6.82386,-3.24438c0.85914,-0.90291 2.72743,-1.85848 1.00438,-0.13491c-1.14388,2.19701 -5.02468,4.57371 -3.98063,6.75676c-0.94503,0.75578 1.90675,1.70567 -0.36338,1.41954c-1.34489,1.27528 1.80307,3.66126 2.05429,5.66836c-0.72108,1.37522 -3.46676,2.93646 -4.57746,2.88711c0.40595,-1.77059 -0.4741,-4.07836 -3.04454,-3.07755c1.43992,2.31441 3.38666,4.5254 4.60636,7.04228c1.19217,2.47421 3.12507,5.33143 5.66807,2.14712c1.62083,-2.02955 6.25115,-2.00017 4.97924,1.29582c-0.6502,3.23657 1.09059,7.50819 -2.2543,9.73765c-2.01783,3.41564 -4.25486,-1.27001 -2.66957,-3.04263c-0.40395,-0.50656 -0.71645,-0.86414 0.46561,-1.55658c-0.24408,-0.51939 3.40176,-2.47351 1.56428,-3.67258c-2.08985,2.08173 -5.14777,4.49133 -4.29793,7.58579c0.68973,2.07366 -4.99885,5.62876 -4.54396,2.18733c0.10189,-1.33745 2.27564,-3.92959 1.77527,-4.26354c-1.58702,2.61582 -3.84465,5.12887 -7.25615,5.90551c-2.8377,0.14773 -4.3242,2.15482 -2.97663,4.38171c0.25754,3.15561 -1.63868,6.01159 -2.07524,9.08402c0.81151,3.25871 5.75217,3.91721 6.42279,7.24136c1.15233,2.23249 -1.73011,1.90256 -3.07307,1.27788l0.00001,0l-0.00001,0l0,-0.00001zm-7.02603,-9.7218c-0.41595,-1.47304 -1.27194,3.82918 -0.21678,1.01498l0.15796,-0.49719l0.05882,-0.51779l0,0.00001l0,-0.00001z"
       stroke-linecap="null"
       stroke-linejoin="null"
       stroke-dasharray="null"
       stroke-width="2"
       fill="#000000"
       stroke="#333333" />
  </g>
  <rect
     style="fill:#000000;fill-opacity:1;fill-rule:evenodd"
     id="rect45"
     width="79.25"
     height="4.5"
     x="11.75"
     y="123.5" />
</svg>
